<?xml version="1.0" encoding="UTF-8" standalone="no"?>
<!-- Created with Inkscape (http://www.inkscape.org/) -->

<svg
   xmlns:dc="http://purl.org/dc/elements/1.1/"
   xmlns:cc="http://creativecommons.org/ns#"
   xmlns:rdf="http://www.w3.org/1999/02/22-rdf-syntax-ns#"
   xmlns:svg="http://www.w3.org/2000/svg"
   xmlns="http://www.w3.org/2000/svg"
   xmlns:sodipodi="http://sodipodi.sourceforge.net/DTD/sodipodi-0.dtd"
   xmlns:inkscape="http://www.inkscape.org/namespaces/inkscape"
   height="442.25021"
   id="svg548"
   inkscape:version="0.48.2 r9819"
   sodipodi:docname="cloud_l.svg"
   sodipodi:version="0.32"
   width="472.04153"
   version="1.1">
  <metadata
     id="metadata3">
    <rdf:RDF>
      <cc:Work
         rdf:about="">
        <dc:title>Clipart by Nicu Buculei - segmented</dc:title>
        <dc:description />
        <dc:subject>
          <rdf:Bag>
            <rdf:li />
            <rdf:li>callout</rdf:li>
            <rdf:li>shape</rdf:li>
          </rdf:Bag>
        </dc:subject>
        <dc:publisher>
          <cc:Agent
             rdf:about="http://www.openclipart.org">
            <dc:title>Nicu Buculei</dc:title>
          </cc:Agent>
        </dc:publisher>
        <dc:creator>
          <cc:Agent>
            <dc:title>Nicu Buculei</dc:title>
          </cc:Agent>
        </dc:creator>
        <dc:rights>
          <cc:Agent>
            <dc:title>Nicu Buculei</dc:title>
          </cc:Agent>
        </dc:rights>
        <dc:date />
        <dc:format>image/svg+xml</dc:format>
        <dc:type
           rdf:resource="http://purl.org/dc/dcmitype/StillImage" />
        <cc:license
           rdf:resource="http://web.resource.org/cc/PublicDomain" />
        <dc:language>en</dc:language>
      </cc:Work>
      <cc:License
         rdf:about="http://web.resource.org/cc/PublicDomain">
        <cc:permits
           rdf:resource="http://web.resource.org/cc/Reproduction" />
        <cc:permits
           rdf:resource="http://web.resource.org/cc/Distribution" />
        <cc:permits
           rdf:resource="http://web.resource.org/cc/DerivativeWorks" />
      </cc:License>
    </rdf:RDF>
  </metadata>
  <defs
     id="defs550" />
  <sodipodi:namedview
     id="base"
     inkscape:cx="198.59119"
     inkscape:cy="167.37698"
     inkscape:window-height="383"
     inkscape:window-width="457"
     inkscape:window-x="0"
     inkscape:window-y="24"
     inkscape:zoom="0.7725"
     showgrid="false"
     inkscape:window-maximized="0"
     inkscape:current-layer="svg548" />
  <g
     id="g830"
     transform="translate(-13.784564,-25.126757)">
    <path
       d="m 172.8501,70.461284 c 3.597,0 35.974,-23.9827 88.737,-26.3811 71.948,-8.394 101.927,38.3725 101.927,38.3725 -2.398,5.9957 49.164,-37.1734 79.143,-33.576 32.377,4.7966 45.568,19.1861 41.97,49.1646 -2.398,19.186696 -22.784,27.580696 -27.58,37.173696 2.398,4.796 28.779,20.386 28.779,62.356 0,41.97 -26.381,64.753 -25.182,64.753 1.199,0 26.381,41.97 7.195,67.152 -19.186,25.182 -73.148,1.2 -81.542,-3.597 -8.394,2.398 -8.394,19.186 -32.377,22.784 -23.983,3.597 -53.961,-7.195 -53.961,-7.195 l -11.991,-9.593 -169.079,135.502 109.121,-128.308 c -15.588,4.797 -11.991,8.394 -56.359,13.191 -37.174,0 -28.78,-7.195 -40.771,-11.992 -14.39,9.593 -73.147793,22.785 -92.334193,-13.19 -15.58881,-45.567 8.3941,-56.36 13.1906,-64.754 -4.7965,-10.792 -20.3854,-28.779 -17.9871,-62.355 0,-43.17 10.7923,-64.754 20.3855,-71.949 -4.7966,-9.593 -23.9829,-47.965896 17.987,-71.948396 69.550193,-17.9872 99.529193,15.5889 100.728193,14.3897 z"
       id="path655"
       sodipodi:nodetypes="ccccccccccccccccccccccc"
       style="fill-opacity:0.5;fill-rule:evenodd;stroke-width:2.5"
       inkscape:connector-curvature="0" />
    <path
       d="m 158.287,57.5163 c 3.597,0 35.974,-23.9827 88.737,-26.3811 71.948,-8.394 101.927,38.3725 101.927,38.3725 -2.398,5.9957 49.164,-37.1734 79.143,-33.576 32.377,4.7966 45.568,19.1861 41.97,49.1646 -2.398,19.1867 -22.784,27.5807 -27.58,37.1737 2.398,4.796 28.779,20.386 28.779,62.356 0,41.97 -26.381,64.753 -25.182,64.753 1.199,0 26.381,41.97 7.195,67.152 -19.186,25.182 -73.148,1.2 -81.542,-3.597 -8.394,2.398 -8.394,19.186 -32.377,22.784 -23.983,3.597 -53.961,-7.195 -53.961,-7.195 L 273.405,318.93 104.326,454.432 213.447,326.124 c -15.588,4.797 -11.991,8.394 -56.359,13.191 -37.174,0 -28.78,-7.195 -40.771,-11.992 -14.39,9.593 -73.1478,22.785 -92.3342,-13.19 C 8.39399,268.566 32.3769,257.773 37.1734,249.379 32.3769,238.587 16.788,220.6 19.1863,187.024 c 0,-43.17 10.7923,-64.754 20.3855,-71.949 C 34.7752,105.482 15.5889,67.1091 57.5588,43.1266 127.109,25.1394 157.088,58.7155 158.287,57.5163 z"
       id="path598"
       sodipodi:nodetypes="ccccccccccccccccccccccc"
       style="fill:#ffffff;fill-rule:evenodd;stroke:#000000;stroke-width:10;stroke-linejoin:round;stroke-dasharray:none"
       inkscape:connector-curvature="0" />
  </g>
</svg>
